HIERARCHY
ROOT Hips
{
	OFFSET -3.958830 18.904000 13.208200
	CHANNELS 6 Xposition Yposition Zposition Zrotation Yrotation Xrotation 
	JOINT LHipJoint
	{
		OFFSET 0.000000 0.000000 0.000000
		CHANNELS 3 Zrotation Yrotation Xrotation
		JOINT LeftUpLeg
		{
			OFFSET 1.800000 -1.400000 0.085000
			CHANNELS 3 Zrotation Yrotation Xrotation
			JOINT LeftLeg
			{
				OFFSET 2.215000 -6.000000 0.000000
				CHANNELS 3 Zrotation Yrotation Xrotation
				JOINT LeftFoot
				{
					OFFSET 2.500000 -6.900000 0.000000
					CHANNELS 3 Zrotation Yrotation Xrotation
					JOINT LeftToeBase
					{
						OFFSET 0.200000 -0.500000 1.950000
						CHANNELS 3 Zrotation Yrotation Xrotation
						End Site
						{
							OFFSET 0.000000 0.000000 0.000000
						}
					}
				}
			}
		}
	}
	JOINT RHipJoint
	{
		OFFSET 0.000000 0.000000 0.000000
		CHANNELS 3 Zrotation Yrotation Xrotation
		JOINT RightUpLeg
		{
			OFFSET -1.800000 -1.400000 0.085000
			CHANNELS 3 Zrotation Yrotation Xrotation
			JOINT RightLeg
			{
				OFFSET -2.215000 -6.000000 0.000000
				CHANNELS 3 Zrotation Yrotation Xrotation
				JOINT RightFoot
				{
					OFFSET -2.500000 -6.900000 0.000000
					CHANNELS 3 Zrotation Yrotation Xrotation
					JOINT RightToeBase
					{
						OFFSET -0.200000 -0.500000 1.950000
						CHANNELS 3 Zrotation Yrotation Xrotation
						End Site
						{
							OFFSET 0.000000 0.000000 0.000000
						}
					}
				}
			}
		}
	}
	JOINT LowerBack
	{
		OFFSET 0.000000 0.000000 0.000000
		CHANNELS 3 Zrotation Yrotation Xrotation
		JOINT Spine
		{
			OFFSET -0.087000 1.940000 -0.288900
			CHANNELS 3 Zrotation Yrotation Xrotation
			JOINT Spine1
			{
				OFFSET 0.000000 1.950000 0.060000
				CHANNELS 3 Zrotation Yrotation Xrotation
				JOINT Neck
				{
					OFFSET 0.000000 0.000000 0.000000
					CHANNELS 3 Zrotation Yrotation Xrotation
					JOINT Neck1
					{
						OFFSET 0.000000 1.600000 0.340000
						CHANNELS 3 Zrotation Yrotation Xrotation
						JOINT Head
						{
							OFFSET 0.000000 1.667000 -0.240000
							CHANNELS 3 Zrotation Yrotation Xrotation
							End Site
							{
								OFFSET 0.000000 0.000000 0.000000
							}
						}
					}
				}
				JOINT LeftShoulder
				{
					OFFSET 0.000000 0.000000 0.000000
					CHANNELS 3 Zrotation Yrotation Xrotation
					JOINT LeftArm
					{
						OFFSET 2.700000 1.550000 -0.730000
						CHANNELS 3 Zrotation Yrotation Xrotation
						JOINT LeftForeArm
						{
							OFFSET 5.450000 0.000000 0.000000
							CHANNELS 3 Zrotation Yrotation Xrotation
							JOINT LeftHand
							{
								OFFSET 3.450000 0.000000 0.000000
								CHANNELS 3 Zrotation Yrotation Xrotation
								JOINT LeftHandIndex1
								{
									OFFSET 0.750000 0.000000 0.000000
									CHANNELS 3 Zrotation Yrotation Xrotation
									End Site
									{
										OFFSET 0.000000 0.000000 0.000000
									}
								}
							}
						}
					}
				}
				JOINT RightShoulder
				{
					OFFSET 0.000000 0.000000 0.000000
					CHANNELS 3 Zrotation Yrotation Xrotation
					JOINT RightArm
					{
						OFFSET -2.700000 1.550000 -0.730000
						CHANNELS 3 Zrotation Yrotation Xrotation
						JOINT RightForeArm
						{
							OFFSET -5.450000 0.000000 0.000000
							CHANNELS 3 Zrotation Yrotation Xrotation
							JOINT RightHand
							{
								OFFSET -3.450000 0.000000 0.000000
								CHANNELS 3 Zrotation Yrotation Xrotation
								JOINT RightHandIndex1
								{
									OFFSET -0.750000 0.000000 0.000000
									CHANNELS 3 Zrotation Yrotation Xrotation
									End Site
									{
										OFFSET 0.000000 0.000000 0.000000
									}
								}
							}
						}
					}
				}
			}
		}
	}
}
MOTION
Frames: 4
Frame Time: 0.016667
-0.666450 14.126810 -5.102510 -46.276069 -7.389477 20.370531 -16.440330 10.851970 5.256592 5.065520 -12.528502 -43.478869 -33.415311 25.257770 44.717581 1.572778 12.597509 0.174591 -0.002200 -0.344970 0.181050 17.918376 -5.551885 5.023674 21.226476 18.521018 -37.925830 -48.256944 22.099120 61.690695 -2.572276 -13.813342 -0.125595 -0.259060 0.304650 0.610420 -1.373507 -6.523128 -9.866231 -8.641250 16.695438 65.355838 10.140187 12.234712 19.156790 2.673374 9.123940 -12.150604 13.551208 -6.652210 37.903140 -6.397340 5.534540 3.051160 -5.245297 -13.647635 1.862039 -10.332516 -19.721523 -3.867866 26.062614 -11.937875 -4.625597 -4.276669 3.298007 0.228490 0.391110 -0.083770 -0.094770 -3.070411 14.332552 14.036967 49.145482 -12.755958 -18.103439 144.614369 48.557769 74.965120 2.242341 -2.321351 -0.018260 -0.358360 0.218680 -0.096470 
-0.593330 14.184040 -5.095770 -50.488140 -11.757460 19.569304 -16.227902 11.034017 4.756834 6.166775 -7.958447 -39.522884 -31.178802 24.034602 41.951091 1.267984 11.926553 0.275920 0.122580 -0.243480 0.276320 18.043943 -6.058489 5.192243 22.267274 19.373175 -31.357711 -47.289561 22.226622 61.465997 -2.615672 -13.501780 -0.077957 -0.188370 0.250040 0.656910 -1.899703 -5.406173 -9.645597 -5.830303 16.775759 66.965616 6.599705 14.328012 20.342488 2.503472 7.961295 -11.545055 11.545089 -4.893455 38.597015 -4.702130 4.547610 -0.806660 -6.804679 -14.529670 1.783607 -6.663514 -19.734061 -4.176392 25.142910 -9.909353 -4.356356 -4.261045 3.286829 0.317950 0.320670 -0.008370 -0.091840 -1.779956 16.577446 13.397246 46.341209 -8.494703 -18.629538 153.305687 51.372418 92.120729 2.244465 -2.154345 0.003440 -0.347900 0.193270 -0.109660 
-0.596870 14.272830 -5.069540 -47.616622 -12.315576 19.769053 -16.290064 11.655619 4.710418 2.115807 -8.599981 -37.717146 -28.720573 23.518124 42.772271 1.176995 11.674616 0.307234 0.202400 -0.128490 0.342760 17.891950 -6.461337 4.610476 17.811281 17.082946 -29.075514 -44.382357 21.287661 61.856067 -2.508064 -13.022270 0.017989 -0.115830 0.207520 0.677310 -1.574001 -6.083423 -9.256289 -10.601648 20.467618 64.061927 9.823904 14.827060 21.836719 1.354523 9.195409 -11.011150 13.946753 -4.182672 38.216218 -4.344400 5.653400 -3.725830 -7.115267 -15.850854 2.214028 -3.293887 -20.701838 -3.745133 22.956267 -7.031364 -3.639466 -4.303275 3.260954 0.338700 0.313460 0.036670 -0.109170 0.500873 17.708808 12.656837 42.513456 -4.543523 -18.240136 163.313838 52.942917 111.315478 2.179073 -2.059846 0.023750 -0.349370 0.169650 -0.123520 
-0.531360 14.355720 -5.099180 -48.198291 -10.962249 21.581811 -16.272079 11.763846 4.847272 2.343239 -8.782262 -39.299536 -25.837087 23.347689 45.804353 1.117058 11.874127 0.198874 0.249440 -0.022980 0.394620 17.878625 -6.703653 4.336237 17.379837 15.561677 -27.244179 -42.044210 19.365159 60.848134 -2.381266 -12.328333 0.189382 -0.058950 0.170530 0.664970 -1.554609 -6.046603 -9.162061 -10.009444 19.541923 62.845933 10.251816 14.351875 22.351363 1.053169 8.840911 -10.746571 13.526320 -2.765706 38.767274 -5.791230 6.901690 -7.526020 -6.981573 -17.274051 3.051536 -2.249254 -20.251456 -3.930468 23.294671 -5.710303 -3.565205 -4.305535 3.186052 0.380550 0.293910 0.100370 -0.128670 1.071927 19.424302 11.524941 38.374048 0.332158 -19.293678 169.967302 57.413274 128.192241 2.065313 -1.892971 0.024920 -0.289450 0.159870 -0.134050 
